<svg width="158" height="158" viewBox="0 0 158 158" fill="none" xmlns="http://www.w3.org/2000/svg">
<g filter="url(#filter0_d)">
<mask id="path-1-inside-1" fill="white">
<path d="M26.7954 127.205C39.863 140.272 57.5108 147.73 75.9893 147.993C94.4678 148.256 112.321 141.304 125.755 128.613C139.189 115.923 147.146 98.4949 147.935 80.0314C148.724 61.5679 142.283 43.5243 129.981 29.7342C117.678 15.944 100.483 7.49414 82.0496 6.17979C63.616 4.86545 45.3964 10.7902 31.2616 22.6953C17.1268 34.6004 8.19085 51.5476 6.35225 69.9363C4.51366 88.325 9.91734 106.706 21.4152 121.174L77 77L26.7954 127.205Z"/>
</mask>
<path d="M26.7954 127.205C39.863 140.272 57.5108 147.73 75.9893 147.993C94.4678 148.256 112.321 141.304 125.755 128.613C139.189 115.923 147.146 98.4949 147.935 80.0314C148.724 61.5679 142.283 43.5243 129.981 29.7342C117.678 15.944 100.483 7.49414 82.0496 6.17979C63.616 4.86545 45.3964 10.7902 31.2616 22.6953C17.1268 34.6004 8.19085 51.5476 6.35225 69.9363C4.51366 88.325 9.91734 106.706 21.4152 121.174L77 77L26.7954 127.205Z" fill="#CCCCE1"/>
<path d="M26.7954 127.205C39.863 140.272 57.5108 147.73 75.9893 147.993C94.4678 148.256 112.321 141.304 125.755 128.613C139.189 115.923 147.146 98.4949 147.935 80.0314C148.724 61.5679 142.283 43.5243 129.981 29.7342C117.678 15.944 100.483 7.49414 82.0496 6.17979C63.616 4.86545 45.3964 10.7902 31.2616 22.6953C17.1268 34.6004 8.19085 51.5476 6.35225 69.9363C4.51366 88.325 9.91734 106.706 21.4152 121.174L77 77L26.7954 127.205Z" stroke="#28286C" stroke-width="6" mask="url(#path-1-inside-1)"/>
</g>
<defs>
<filter id="filter0_d" x="-0.000213623" y="-0.00012207" width="158" height="158" filterUnits="userSpaceOnUse" color-interpolation-filters="sRGB">
<feFlood flood-opacity="0" result="BackgroundImageFix"/>
<feColorMatrix in="SourceAlpha" type="matrix" values="0 0 0 0 0 0 0 0 0 0 0 0 0 0 0 0 0 0 127 0"/>
<feOffset dx="2" dy="2"/>
<feGaussianBlur stdDeviation="4"/>
<feColorMatrix type="matrix" values="0 0 0 0 0.156863 0 0 0 0 0.156863 0 0 0 0 0.423529 0 0 0 1 0"/>
<feBlend mode="normal" in2="BackgroundImageFix" result="effect1_dropShadow"/>
<feBlend mode="normal" in="SourceGraphic" in2="effect1_dropShadow" result="shape"/>
</filter>
</defs>
</svg>
